<svg
    width="61"
    height="60"
    viewBox="0 0 61 60"
    fill="none"
    xmlns="http://www.w3.org/2000/svg"
>
    <g clip-path="url(#clip0_197_71)">
        <path
            d="M55.3812 12.959H40.8024V9.98009C41.6657 9.68748 42.3757 9.01568 42.6958 8.12787C43.2644 6.54804 42.4421 4.79987 40.8625 4.23072C37.8866 3.15862 34.3035 2.5918 30.5 2.5918C26.6965 2.5918 23.1134 3.15862 20.1375 4.23072C18.5579 4.79987 17.7354 6.54804 18.3043 8.12825C18.6314 9.03577 19.3479 9.69266 20.1976 9.98009V12.959H5.61879C2.79633 12.959 0.5 15.2553 0.5 18.0778V52.2894C0.5 55.1119 2.79633 57.4082 5.61879 57.4082H55.3812C58.2037 57.4082 60.5 55.1119 60.5 52.2894V18.0778C60.5 15.2553 58.2037 12.959 55.3812 12.959ZM20.7965 6.05949C23.5633 5.06255 26.9187 4.53564 30.5 4.53564C34.0813 4.53564 37.4367 5.06255 40.2037 6.05949C40.7752 6.26527 41.0727 6.89793 40.867 7.46903C40.7098 7.9051 40.2933 8.19797 39.8305 8.19797C39.7035 8.19797 39.5779 8.17594 39.4574 8.13253C36.9633 7.2337 33.7822 6.73866 30.5 6.73866C27.2178 6.73866 24.0367 7.2337 21.5428 8.13253C20.9713 8.33819 20.3389 8.04078 20.1331 7.46942C19.9274 6.89793 20.2248 6.2654 20.7965 6.05949ZM22.1415 9.98126C22.1616 9.97452 22.1816 9.96843 22.2017 9.9613C24.4898 9.13659 27.4368 8.68251 30.5 8.68251C33.5632 8.68251 36.5102 9.13659 38.7984 9.96143C38.8182 9.96856 38.8386 9.97348 38.8585 9.98022V12.959H22.1415V9.98126ZM2.44384 18.0778C2.44384 16.3271 3.86816 14.9028 5.61879 14.9028H55.3812C57.1318 14.9028 58.5562 16.3271 58.5562 18.0778V27.4082C58.5562 33.7321 53.4113 38.8769 47.0875 38.8769H34.5821V37.7754C34.5821 36.0962 33.2159 34.73 31.5367 34.73H29.4633C27.7841 34.73 26.4179 36.0962 26.4179 37.7754V38.8769H13.9125C7.58868 38.8769 2.44384 33.7321 2.44384 27.4082V18.0778ZM32.6382 39.8488C32.6382 40.4562 32.1441 40.9503 31.5367 40.9503H29.4633C28.8559 40.9503 28.3618 40.4562 28.3618 39.8488V37.7754C28.3618 37.168 28.8559 36.6739 29.4633 36.6739H31.5367C32.1441 36.6739 32.6382 37.168 32.6382 37.7754V39.8488ZM28.3618 42.6872C28.7036 42.8203 29.0749 42.8942 29.4633 42.8942H31.5367C31.9251 42.8942 32.2964 42.8203 32.6382 42.6872V43.9957C32.6382 44.6031 32.1441 45.0972 31.5367 45.0972H29.4633C28.8559 45.0972 28.3618 44.6031 28.3618 43.9957V42.6872ZM58.5562 52.2894C58.5562 54.04 57.1318 55.4644 55.3812 55.4644H5.61879C3.86816 55.4644 2.44384 54.04 2.44384 52.2894V34.3567C4.79862 38.2289 9.05862 40.8207 13.9125 40.8207H26.4179V43.9957C26.4179 45.6749 27.7841 47.041 29.4633 47.041H31.5367C33.2159 47.041 34.5821 45.6749 34.5821 43.9957V40.8207H47.0875C51.9414 40.8207 56.2014 38.2289 58.5562 34.3567V52.2894Z"
            fill="white"
        />
    </g>
    <defs>
        <clipPath id="clip0_197_71">
            <rect
                width="60"
                height="60"
                fill="white"
                transform="translate(0.5)"
            />
        </clipPath>
    </defs>
</svg>