<svg
    width="60"
    height="60"
    viewBox="0 0 60 60"
    fill="none"
    xmlns="http://www.w3.org/2000/svg"
>
    <g clip-path="url(#clip0_197_210)">
        <path
            d="M59.9985 41.4444C59.9986 41.4308 60 41.4175 60 41.4039C60 41.4009 59.9996 41.3979 59.9995 41.3948C59.9994 41.3728 59.9978 41.3508 59.9961 41.3286C59.9953 41.3178 59.9948 41.3071 59.9937 41.2965C59.9916 41.2774 59.9882 41.2585 59.985 41.2394C59.9826 41.2258 59.9807 41.2121 59.9777 41.1986C59.9745 41.184 59.9703 41.1695 59.9664 41.1548C59.9618 41.1373 59.9574 41.1198 59.9518 41.1029C59.9482 41.0917 59.9436 41.0806 59.9396 41.0694C59.9324 41.0496 59.925 41.03 59.9164 41.0108C59.9151 41.0079 59.9142 41.0048 59.9128 41.0016L49.6328 18.3855V15.4212H49.6976C50.8052 15.4212 51.7063 14.5201 51.7063 13.4125V13.2586C51.7063 12.2675 50.9961 11.4336 50.0177 11.2756L33.0454 8.53672V6.79646C33.6896 6.07451 34.0821 5.12346 34.0821 4.08207C34.0821 1.83123 32.2509 0 30 0C27.7492 0 25.9179 1.83123 25.9179 4.08207C25.9179 5.12346 26.3105 6.07451 26.9547 6.79646V8.44225L9.97206 11.2727C8.99962 11.4349 8.29374 12.2681 8.29374 13.254V13.4125C8.29374 14.5201 9.19478 15.4212 10.3024 15.4212H10.3672V18.3855L0.0870917 41.0016C0.0856663 41.0046 0.0847591 41.0079 0.0834632 41.0108C0.0750399 41.0299 0.0676533 41.0496 0.0603963 41.0693C0.0562494 41.0804 0.0518434 41.0916 0.0480853 41.1029C0.0425129 41.1198 0.0379773 41.1373 0.0334416 41.1548C0.029554 41.1695 0.0254071 41.184 0.0221673 41.1986C0.0193164 41.2121 0.0172429 41.2258 0.0149103 41.2394C0.0116706 41.2585 0.00830126 41.2774 0.00622782 41.2965C0.00506151 41.3071 0.00467275 41.318 0.00376562 41.3287C0.00208095 41.3508 0.000655468 41.3728 0.000396288 41.3947C0.000396288 41.3978 -0.00012207 41.4008 -0.00012207 41.4038C-0.00012207 41.4175 0.00130342 41.4308 0.00143301 41.4446C0.00195136 41.4555 0.00182177 41.4665 0.0027289 41.4774C0.0633768 45.4751 5.01966 48.5961 11.3391 48.5961C17.6585 48.5961 22.6148 45.4751 22.6753 41.4775C22.6762 41.4666 22.6761 41.4556 22.6766 41.4446C22.6768 41.431 22.6782 41.4176 22.6782 41.404C22.6782 41.401 22.6778 41.3981 22.6777 41.3949C22.6775 41.3729 22.676 41.3509 22.6743 41.3287C22.6735 41.318 22.673 41.3072 22.6718 41.2966C22.6698 41.2775 22.6664 41.2586 22.6632 41.2396C22.6608 41.226 22.6589 41.2122 22.6559 41.1987C22.6527 41.1841 22.6485 41.1696 22.6446 41.1549C22.64 41.1375 22.6356 41.12 22.63 41.103C22.6264 41.0918 22.6218 41.0807 22.6178 41.0695C22.6105 41.0497 22.6032 41.0301 22.5946 41.011C22.5933 41.008 22.5924 41.0049 22.591 41.0018L12.311 18.3855V15.4212H26.9547V36.5371C26.3372 36.8802 25.9179 37.5386 25.9179 38.2937V52.6116L19.7611 54.5356C18.483 54.9351 17.6242 56.1032 17.6242 57.4424V59.0281C17.6242 59.5648 18.0592 60 18.5961 60H41.4039C41.9408 60 42.3758 59.5648 42.3758 59.0281V57.4423C42.3758 56.1031 41.517 54.935 40.2389 54.5355L34.0821 52.6116V38.2937C34.0821 37.5386 33.6629 36.8802 33.0454 36.5371V15.4212H47.689V18.3855L37.4089 41.0018C37.4075 41.0048 37.4066 41.008 37.4053 41.011C37.3969 41.03 37.3895 41.0497 37.3822 41.0694C37.3781 41.0806 37.3737 41.0917 37.3699 41.103C37.3643 41.12 37.3598 41.1375 37.3553 41.1549C37.3514 41.1696 37.3472 41.1841 37.344 41.1987C37.3411 41.2122 37.3391 41.226 37.3367 41.2396C37.3335 41.2586 37.3301 41.2775 37.328 41.2966C37.3269 41.3072 37.3265 41.3181 37.3256 41.3289C37.3239 41.3509 37.3225 41.3729 37.3222 41.3948C37.3222 41.3979 37.3217 41.4009 37.3217 41.4039C37.3217 41.4176 37.3231 41.431 37.3232 41.4447C37.3238 41.4556 37.3236 41.4666 37.3245 41.4775C37.3852 45.4751 42.3415 48.5961 48.6609 48.5961C54.9804 48.5961 59.9366 45.4751 59.9972 41.4775C59.9981 41.4665 59.9979 41.4555 59.9985 41.4444ZM11.3391 20.9449L20.1968 40.432H2.48139L11.3391 20.9449ZM11.3391 46.6523C6.83871 46.6523 2.95569 44.7756 2.1131 42.3758H20.5652C19.7225 44.7756 15.8395 46.6523 11.3391 46.6523ZM32.1382 38.2937V52.3542H27.8618V38.2937C27.8618 38.258 27.8909 38.2289 27.9266 38.2289H32.0734C32.1091 38.2289 32.1382 38.258 32.1382 38.2937ZM28.8985 36.2851V8.01188C29.2492 8.11037 29.6184 8.16415 30 8.16415C30.3816 8.16415 30.7509 8.11037 31.1015 8.01188V36.2851H28.8985ZM30 1.94384C31.179 1.94384 32.1382 2.90307 32.1382 4.08207C32.1382 5.26108 31.179 6.2203 30 6.2203C28.821 6.2203 27.8618 5.26108 27.8618 4.08207C27.8618 2.90307 28.821 1.94384 30 1.94384ZM10.3024 13.4773C10.2667 13.4773 10.2376 13.4483 10.2376 13.4125V13.254C10.2376 13.2222 10.2604 13.1953 10.2918 13.1902L26.9547 10.413V13.4773H10.3024ZM40.432 57.4423V58.0562H19.568V57.4423C19.568 56.9579 19.8787 56.5353 20.341 56.3909L27.0382 54.2981H32.9619L39.6591 56.3909C40.1213 56.5354 40.432 56.9579 40.432 57.4423ZM33.0454 10.5058L49.7079 13.1947C49.7395 13.1997 49.7624 13.2267 49.7624 13.2587V13.4127C49.7624 13.4484 49.7333 13.4775 49.6976 13.4775H33.0454V10.5058ZM48.6609 20.9449L57.5186 40.432H39.8032L48.6609 20.9449ZM48.6609 46.6523C44.1605 46.6523 40.2775 44.7756 39.4349 42.3758H57.8871C57.0443 44.7756 53.1613 46.6523 48.6609 46.6523Z"
            fill="white"
        />
    </g>
    <defs>
        <clipPath id="clip0_197_210">
            <rect width="60" height="60" fill="white" />
        </clipPath>
    </defs>
</svg>