<svg
    width="60"
    height="60"
    viewBox="0 0 60 60"
    fill="none"
    xmlns="http://www.w3.org/2000/svg"
>
    <g clip-path="url(#clip0_197_225)">
        <path
            d="M48.6609 0H19.6328C19.6216 0 19.6108 0.0012959 19.5996 0.00168467C19.5889 0.00207343 19.5781 0.00259179 19.5674 0.00323974C19.5258 0.00596112 19.4847 0.0106264 19.4448 0.0185313C19.4441 0.0186609 19.4435 0.0186609 19.4429 0.0187905C19.3997 0.0273434 19.3578 0.0393952 19.3169 0.0535205C19.3096 0.0559827 19.3025 0.0588337 19.2952 0.0614255C19.2565 0.0758099 19.2188 0.0920086 19.1825 0.111058C19.1803 0.112225 19.1779 0.113132 19.1757 0.114298C19.1378 0.134514 19.1019 0.157711 19.0671 0.182592C19.0594 0.188164 19.0518 0.193996 19.0442 0.199827C19.0099 0.226134 18.9766 0.253737 18.9461 0.28419L18.9456 0.284579L8.57841 10.6517L8.57802 10.6521C8.54757 10.6827 8.51983 10.7159 8.49366 10.7502C8.48783 10.758 8.48199 10.7657 8.47629 10.7734C8.45141 10.808 8.42835 10.8439 8.40813 10.8816C8.40683 10.8842 8.40567 10.8868 8.40437 10.8894C8.38571 10.9252 8.36964 10.9624 8.35539 11.0006C8.35253 11.0083 8.34968 11.0158 8.34696 11.0235C8.33297 11.0641 8.32104 11.1056 8.31249 11.1485C8.31223 11.15 8.3121 11.1517 8.31171 11.1533C8.3042 11.1923 8.29966 11.2322 8.29681 11.2726C8.29603 11.284 8.29552 11.2953 8.29513 11.3067C8.295 11.3176 8.2937 11.3282 8.2937 11.3391V56.9546C8.2937 58.6339 9.65984 60 11.3391 60H48.6609C50.3401 60 51.7062 58.6339 51.7062 56.9546V3.04536C51.7062 1.36613 50.3401 0 48.6609 0ZM18.6609 3.31827V9.26566C18.6609 9.87305 18.1667 10.3672 17.5594 10.3672H11.612L18.6609 3.31827ZM49.7624 56.9546C49.7624 57.562 49.2683 58.0562 48.6609 58.0562H11.3391C10.7317 58.0562 10.2375 57.562 10.2375 56.9546V12.311H17.5594C19.2386 12.311 20.6047 10.9449 20.6047 9.26566V1.94384H48.6609C49.2683 1.94384 49.7624 2.43797 49.7624 3.04536V56.9546Z"
            fill="white"
        />
        <path
            d="M17.5593 27.8618H42.4405C42.9773 27.8618 43.4125 27.4268 43.4125 26.8899C43.4125 26.353 42.9773 25.9179 42.4405 25.9179H17.5593C17.0226 25.9179 16.5874 26.353 16.5874 26.8899C16.5874 27.4268 17.0226 27.8618 17.5593 27.8618Z"
            fill="white"
        />
        <path
            d="M17.5593 33.0453H42.4405C42.9773 33.0453 43.4125 32.6103 43.4125 32.0734C43.4125 31.5365 42.9773 31.1015 42.4405 31.1015H17.5593C17.0226 31.1015 16.5874 31.5365 16.5874 32.0734C16.5874 32.6103 17.0226 33.0453 17.5593 33.0453Z"
            fill="white"
        />
        <path
            d="M17.5593 38.2289H29.9999C30.5367 38.2289 30.9719 37.7939 30.9719 37.257C30.9719 36.7201 30.5367 36.2851 29.9999 36.2851H17.5593C17.0226 36.2851 16.5874 36.7201 16.5874 37.257C16.5874 37.7939 17.0226 38.2289 17.5593 38.2289Z"
            fill="white"
        />
        <path
            d="M30.9719 42.4406C30.9719 41.9037 30.5367 41.4687 29.9999 41.4687H17.5593C17.0226 41.4687 16.5874 41.9037 16.5874 42.4406C16.5874 42.9775 17.0226 43.4125 17.5593 43.4125H29.9999C30.5367 43.4125 30.9719 42.9775 30.9719 42.4406Z"
            fill="white"
        />
        <path
            d="M35.1186 16.7819C35.1186 16.245 34.6835 15.8099 34.1467 15.8099C33.61 15.8099 33.1748 16.245 33.1748 16.7819C33.1748 18.6766 34.9318 20.2076 37.3217 20.5378V20.6696C37.3217 21.2064 37.7568 21.6415 38.2936 21.6415C38.8304 21.6415 39.2655 21.2064 39.2655 20.6696V20.5378C41.6554 20.2074 43.4124 18.6765 43.4124 16.7819C43.4124 14.8873 41.6554 13.3562 39.2655 13.026V9.30337C40.4362 9.54765 41.4685 10.2102 41.4685 11.0799C41.4685 11.6168 41.9037 12.0518 42.4405 12.0518C42.9772 12.0518 43.4124 11.6168 43.4124 11.0799C43.4124 9.18519 41.6554 7.65422 39.2655 7.32402V7.19223C39.2655 6.65534 38.8304 6.22031 38.2936 6.22031C37.7568 6.22031 37.3217 6.65534 37.3217 7.19223V7.32402C34.9318 7.65435 33.1748 9.18532 33.1748 11.0799C33.1748 12.9745 34.9318 14.5056 37.3217 14.8358V18.5584C36.151 18.3141 35.1186 17.6517 35.1186 16.7819ZM41.4685 16.7819C41.4685 17.6517 40.4362 18.3141 39.2655 18.5584V15.0053C40.4362 15.2496 41.4685 15.9121 41.4685 16.7819ZM35.1186 11.0799C35.1186 10.2101 36.151 9.54765 37.3217 9.30337V12.8565C36.151 12.6122 35.1186 11.9497 35.1186 11.0799Z"
            fill="white"
        />
        <path
            d="M44.3534 41.5319C43.886 41.268 43.2931 41.4327 43.0291 41.9001L41.0306 45.4375L40.7568 45.2268C40.526 45.0491 40.2277 44.9841 39.9441 45.0502C39.6605 45.116 39.4212 45.3055 39.2923 45.5664L38.2827 47.6107L37.9582 47.2387C37.4821 46.6928 36.7739 46.4487 36.0623 46.5871C35.3512 46.7248 34.7848 47.2157 34.5471 47.8998L33.432 51.1093L30.7788 47.7579C30.6138 47.5496 30.3707 47.4178 30.106 47.3934C29.8418 47.3699 29.5783 47.454 29.3779 47.6287L26.5609 50.0858C26.1563 50.4386 26.1145 51.0526 26.4672 51.4571C26.8202 51.8616 27.4339 51.9032 27.8385 51.5508L29.8873 49.7637L32.4208 52.9638C32.7063 53.3242 33.1382 53.5289 33.5889 53.5289C33.6716 53.5289 33.7549 53.522 33.838 53.508C34.3744 53.4171 34.8185 53.0414 34.9969 52.5277L36.3831 48.5381C36.3881 48.5239 36.3955 48.5028 36.4321 48.4956C36.4684 48.4884 36.4834 48.5053 36.4932 48.5165L37.7758 49.9874C37.9894 50.2323 38.3116 50.3544 38.6336 50.3124C38.9559 50.2705 39.2359 50.0703 39.3798 49.779L40.5101 47.4906L40.7323 47.6616C40.9556 47.8336 41.2424 47.8996 41.5185 47.8441C41.7947 47.788 42.0329 47.6149 42.1715 47.3697L44.7213 42.8566C44.9856 42.389 44.8207 41.796 44.3534 41.5319Z"
            fill="white"
        />
    </g>
    <defs>
        <clipPath id="clip0_197_225">
            <rect width="60" height="60" fill="white" />
        </clipPath>
    </defs>
</svg>