<svg
    width="61"
    height="60"
    viewBox="0 0 61 60"
    fill="none"
    xmlns="http://www.w3.org/2000/svg"
>
    <g clip-path="url(#clip0_197_144)">
        <path
            d="M40.8672 52.8726H20.1328C19.5959 52.8726 19.1609 53.3077 19.1609 53.8445C19.1609 54.3812 19.5959 54.8164 20.1328 54.8164H40.8672C41.404 54.8164 41.8391 54.3812 41.8391 53.8445C41.8391 53.3077 41.404 52.8726 40.8672 52.8726Z"
            fill="white"
        />
        <path
            d="M29.4633 48.7257C28.9264 48.7257 28.4913 49.1609 28.4913 49.6976C28.4913 50.2344 28.9264 50.6696 29.4633 50.6696H31.5367C32.0736 50.6696 32.5086 50.2344 32.5086 49.6976C32.5086 49.1609 32.0736 48.7257 31.5367 48.7257H29.4633Z"
            fill="white"
        />
        <path
            d="M35.6836 48.7257C35.1467 48.7257 34.7117 49.1609 34.7117 49.6976C34.7117 50.2344 35.1467 50.6696 35.6836 50.6696H37.757C38.2939 50.6696 38.7289 50.2344 38.7289 49.6976C38.7289 49.1609 38.2939 48.7257 37.757 48.7257H35.6836Z"
            fill="white"
        />
        <path
            d="M44.9493 49.6976C44.9493 49.1609 44.5143 48.7257 43.9774 48.7257H41.9039C41.367 48.7257 40.932 49.1609 40.932 49.6976C40.932 50.2344 41.367 50.6696 41.9039 50.6696H43.9774C44.5143 50.6696 44.9493 50.2344 44.9493 49.6976Z"
            fill="white"
        />
        <path
            d="M50.1976 48.7257H48.1241C47.5873 48.7257 47.1522 49.1609 47.1522 49.6976C47.1522 50.2344 47.5873 50.6696 48.1241 50.6696H50.1976C50.7345 50.6696 51.1695 50.2344 51.1695 49.6976C51.1695 49.1609 50.7345 48.7257 50.1976 48.7257Z"
            fill="white"
        />
        <path
            d="M13.8477 49.6976C13.8477 49.1609 13.4127 48.7257 12.8758 48.7257H10.8024C10.2655 48.7257 9.83044 49.1609 9.83044 49.6976C9.83044 50.2344 10.2655 50.6696 10.8024 50.6696H12.8758C13.4127 50.6696 13.8477 50.2344 13.8477 49.6976Z"
            fill="white"
        />
        <path
            d="M20.0681 49.6976C20.0681 49.1609 19.633 48.7257 19.0961 48.7257H17.0227C16.4858 48.7257 16.0508 49.1609 16.0508 49.6976C16.0508 50.2344 16.4858 50.6696 17.0227 50.6696H19.0961C19.633 50.6696 20.0681 50.2344 20.0681 49.6976Z"
            fill="white"
        />
        <path
            d="M23.243 48.7257C22.7062 48.7257 22.2711 49.1609 22.2711 49.6976C22.2711 50.2344 22.7062 50.6696 23.243 50.6696H25.3165C25.8534 50.6696 26.2884 50.2344 26.2884 49.6976C26.2884 49.1609 25.8534 48.7257 25.3165 48.7257H23.243Z"
            fill="white"
        />
        <path
            d="M29.4633 42.3758H31.5367C32.0736 42.3758 32.5086 41.9406 32.5086 41.4039C32.5086 40.8671 32.0736 40.4319 31.5367 40.4319H29.4633C28.9264 40.4319 28.4913 40.8671 28.4913 41.4039C28.4913 41.9406 28.9264 42.3758 29.4633 42.3758Z"
            fill="white"
        />
        <path
            d="M35.6836 42.3758H37.757C38.2939 42.3758 38.7289 41.9406 38.7289 41.4039C38.7289 40.8671 38.2939 40.4319 37.757 40.4319H35.6836C35.1467 40.4319 34.7117 40.8671 34.7117 41.4039C34.7117 41.9406 35.1467 42.3758 35.6836 42.3758Z"
            fill="white"
        />
        <path
            d="M41.9039 42.3758H43.9774C44.5143 42.3758 44.9493 41.9406 44.9493 41.4039C44.9493 40.8671 44.5143 40.4319 43.9774 40.4319H41.9039C41.367 40.4319 40.932 40.8671 40.932 41.4039C40.932 41.9406 41.367 42.3758 41.9039 42.3758Z"
            fill="white"
        />
        <path
            d="M48.1241 42.3758H50.1976C50.7345 42.3758 51.1695 41.9406 51.1695 41.4039C51.1695 40.8671 50.7345 40.4319 50.1976 40.4319H48.1241C47.5873 40.4319 47.1522 40.8671 47.1522 41.4039C47.1522 41.9406 47.5873 42.3758 48.1241 42.3758Z"
            fill="white"
        />
        <path
            d="M10.8024 42.3758H12.8758C13.4127 42.3758 13.8477 41.9406 13.8477 41.4039C13.8477 40.8671 13.4127 40.4319 12.8758 40.4319H10.8024C10.2655 40.4319 9.83044 40.8671 9.83044 41.4039C9.83044 41.9406 10.2655 42.3758 10.8024 42.3758Z"
            fill="white"
        />
        <path
            d="M17.0227 42.3758H19.0961C19.633 42.3758 20.0681 41.9406 20.0681 41.4039C20.0681 40.8671 19.633 40.4319 19.0961 40.4319H17.0227C16.4858 40.4319 16.0508 40.8671 16.0508 41.4039C16.0508 41.9406 16.4858 42.3758 17.0227 42.3758Z"
            fill="white"
        />
        <path
            d="M23.243 42.3758H25.3165C25.8534 42.3758 26.2884 41.9406 26.2884 41.4039C26.2884 40.8671 25.8534 40.4319 25.3165 40.4319H23.243C22.7062 40.4319 22.2711 40.8671 22.2711 41.4039C22.2711 41.9406 22.7062 42.3758 23.243 42.3758Z"
            fill="white"
        />
        <path
            d="M31.6016 45.5508C31.6016 46.0875 32.0366 46.5227 32.5735 46.5227H34.6469C35.1838 46.5227 35.6188 46.0875 35.6188 45.5508C35.6188 45.014 35.1838 44.5789 34.6469 44.5789H32.5735C32.0366 44.5789 31.6016 45.014 31.6016 45.5508Z"
            fill="white"
        />
        <path
            d="M37.8218 45.5508C37.8218 46.0875 38.2568 46.5227 38.7937 46.5227H40.8671C41.404 46.5227 41.8391 46.0875 41.8391 45.5508C41.8391 45.014 41.404 44.5789 40.8671 44.5789H38.7937C38.2568 44.5789 37.8218 45.014 37.8218 45.5508Z"
            fill="white"
        />
        <path
            d="M44.0421 45.5508C44.0421 46.0875 44.4771 46.5227 45.014 46.5227H47.0875C47.6244 46.5227 48.0594 46.0875 48.0594 45.5508C48.0594 45.014 47.6244 44.5789 47.0875 44.5789H45.014C44.4771 44.5789 44.0421 45.014 44.0421 45.5508Z"
            fill="white"
        />
        <path
            d="M12.9406 45.5508C12.9406 46.0875 13.3756 46.5227 13.9125 46.5227H15.9859C16.5228 46.5227 16.9578 46.0875 16.9578 45.5508C16.9578 45.014 16.5228 44.5789 15.9859 44.5789H13.9125C13.3756 44.5789 12.9406 45.014 12.9406 45.5508Z"
            fill="white"
        />
        <path
            d="M10.7376 45.5508C10.7376 45.014 10.3026 44.5789 9.76569 44.5789H7.69226C7.15537 44.5789 6.72034 45.014 6.72034 45.5508C6.72034 46.0875 7.15537 46.5227 7.69226 46.5227H9.76569C10.3026 46.5227 10.7376 46.0875 10.7376 45.5508Z"
            fill="white"
        />
        <path
            d="M53.3078 44.5789H51.2344C50.6975 44.5789 50.2625 45.014 50.2625 45.5508C50.2625 46.0875 50.6975 46.5227 51.2344 46.5227H53.3078C53.8447 46.5227 54.2797 46.0875 54.2797 45.5508C54.2797 45.014 53.8447 44.5789 53.3078 44.5789Z"
            fill="white"
        />
        <path
            d="M47.0875 52.8726H45.014C44.4771 52.8726 44.0421 53.3077 44.0421 53.8445C44.0421 54.3812 44.4771 54.8164 45.014 54.8164H47.0875C47.6244 54.8164 48.0594 54.3812 48.0594 53.8445C48.0594 53.3077 47.6244 52.8726 47.0875 52.8726Z"
            fill="white"
        />
        <path
            d="M15.9859 52.8726H13.9125C13.3756 52.8726 12.9406 53.3077 12.9406 53.8445C12.9406 54.3812 13.3756 54.8164 13.9125 54.8164H15.9859C16.5228 54.8164 16.9578 54.3812 16.9578 53.8445C16.9578 53.3077 16.5228 52.8726 15.9859 52.8726Z"
            fill="white"
        />
        <path
            d="M19.1609 45.5508C19.1609 46.0875 19.5959 46.5227 20.1328 46.5227H22.2062C22.7431 46.5227 23.1782 46.0875 23.1782 45.5508C23.1782 45.014 22.7431 44.5789 22.2062 44.5789H20.1328C19.5959 44.5789 19.1609 45.014 19.1609 45.5508Z"
            fill="white"
        />
        <path
            d="M25.3812 45.5508C25.3812 46.0875 25.8163 46.5227 26.3531 46.5227H28.4266C28.9635 46.5227 29.3985 46.0875 29.3985 45.5508C29.3985 45.014 28.9635 44.5789 28.4266 44.5789H26.3531C25.8163 44.5789 25.3812 45.014 25.3812 45.5508Z"
            fill="white"
        />
        <path
            d="M56.4179 34.2117H51.1695V29.9352H52.4958C52.9024 31.1391 54.0418 32.0086 55.3812 32.0086C57.0604 32.0086 58.4266 30.6425 58.4266 28.9633V24.8164C58.4266 23.1372 57.0604 21.7711 55.3812 21.7711C54.0418 21.7711 52.9024 22.6406 52.4958 23.8445H48.0594V3.04536C48.0594 1.36613 46.6933 0 45.014 0H15.986C14.3067 0 12.9406 1.36613 12.9406 3.04536V23.8445H8.50423C8.09758 22.6406 6.95823 21.7711 5.61879 21.7711C3.93957 21.7711 2.57343 23.1372 2.57343 24.8164V28.9633C2.57343 30.6425 3.93957 32.0086 5.61879 32.0086C6.95823 32.0086 8.09758 31.1391 8.50423 29.9352H9.83045V34.2117H4.58207C2.33123 34.2117 0.5 36.0429 0.5 38.2937V55.9179C0.5 58.1688 2.33123 60 4.58207 60H56.4179C58.6688 60 60.5 58.1688 60.5 55.9179V38.2937C60.5 36.0429 58.6688 34.2117 56.4179 34.2117ZM8.66415 27.9914V25.7883H52.3359V27.9914H8.66415ZM40.8013 29.9352C40.4726 31.1719 39.5228 32.3325 38.042 33.2749C36.042 34.5474 33.3635 35.2484 30.5 35.2484C27.6365 35.2484 24.958 34.5474 22.9581 33.2749C21.4773 32.3325 20.5274 31.172 20.1988 29.9352H40.8013ZM55.3812 23.7149C55.9886 23.7149 56.4827 24.209 56.4827 24.8164V28.9633C56.4827 29.5707 55.9886 30.0648 55.3812 30.0648C54.7738 30.0648 54.2797 29.5707 54.2797 28.9633V24.8164C54.2797 24.209 54.7738 23.7149 55.3812 23.7149ZM14.8844 3.04536C14.8844 2.43797 15.3786 1.94384 15.986 1.94384H45.014C45.6214 1.94384 46.1156 2.43797 46.1156 3.04536V23.8445H14.8844V3.04536ZM5.61879 30.0648C5.0114 30.0648 4.51728 29.5707 4.51728 28.9633V24.8164C4.51728 24.209 5.0114 23.7149 5.61879 23.7149C6.22618 23.7149 6.7203 24.209 6.7203 24.8164V28.9633C6.7203 29.5707 6.22618 30.0648 5.61879 30.0648ZM58.5562 55.9179C58.5562 57.0969 57.5971 58.0562 56.4179 58.0562H4.58207C3.40294 58.0562 2.44384 57.0969 2.44384 55.9179V38.2937C2.44384 37.1147 3.40294 36.1555 4.58207 36.1555H10.8024C11.3393 36.1555 11.7743 35.7203 11.7743 35.1836V29.9352H18.2078C18.5346 31.8413 19.8216 33.5828 21.9146 34.9147C24.2224 36.3833 27.2714 37.1922 30.5 37.1922C33.7286 37.1922 36.7776 36.3833 39.0856 34.9147C41.1786 33.5828 42.4655 31.8413 42.7924 29.9352H49.2257V35.1836C49.2257 35.7203 49.6607 36.1555 50.1976 36.1555H56.4179C57.5971 36.1555 58.5562 37.1147 58.5562 38.2937V55.9179Z"
            fill="white"
        />
        <path
            d="M40.8672 18.6609H20.1328C19.5959 18.6609 19.1609 19.0961 19.1609 19.6328C19.1609 20.1696 19.5959 20.6048 20.1328 20.6048H40.8672C41.404 20.6048 41.8391 20.1696 41.8391 19.6328C41.8391 19.0961 41.404 18.6609 40.8672 18.6609Z"
            fill="white"
        />
        <path
            d="M40.8672 13.4773H20.1328C19.5959 13.4773 19.1609 13.9125 19.1609 14.4492C19.1609 14.986 19.5959 15.4212 20.1328 15.4212H40.8672C41.404 15.4212 41.8391 14.986 41.8391 14.4492C41.8391 13.9125 41.404 13.4773 40.8672 13.4773Z"
            fill="white"
        />
        <path
            d="M40.8672 8.29373H20.1328C19.5959 8.29373 19.1609 8.72889 19.1609 9.26565C19.1609 9.80241 19.5959 10.2376 20.1328 10.2376H40.8672C41.404 10.2376 41.8391 9.80241 41.8391 9.26565C41.8391 8.72889 41.404 8.29373 40.8672 8.29373Z"
            fill="white"
        />
    </g>
    <defs>
        <clipPath id="clip0_197_144">
            <rect
                width="60"
                height="60"
                fill="white"
                transform="translate(0.5)"
            />
        </clipPath>
    </defs>
</svg>
          